<?xml version="1.0" standalone="no"?>
<!DOCTYPE svg PUBLIC "-//W3C//DTD SVG 20010904//EN"
 "http://www.w3.org/TR/2001/REC-SVG-20010904/DTD/svg10.dtd">
<svg version="1.0" xmlns="http://www.w3.org/2000/svg"
 width="1910.000000pt" height="514.000000pt" viewBox="0 0 1910.000000 514.000000"
 preserveAspectRatio="xMidYMid meet">

<g transform="translate(0.000000,514.000000) scale(0.100000,-0.100000)"
fill="#000000" stroke="none">
<path d="M7114 4623 c-121 -130 -248 -269 -283 -308 -35 -38 -96 -104 -135
-145 -75 -80 -274 -295 -291 -315 -5 -6 -37 -39 -70 -74 l-60 -62 -5 -1375 -5
-1376 -175 188 c-96 104 -233 252 -304 329 -169 182 -370 399 -740 798 -60 65
-117 127 -126 137 -9 11 -61 67 -116 126 -54 59 -103 112 -109 119 -5 6 -23
25 -39 42 l-28 31 68 74 c37 40 90 98 119 128 66 71 354 383 730 790 291 316
339 368 475 514 36 39 70 75 75 81 44 50 277 301 410 443 33 35 62 68 63 73 2
5 -492 9 -1286 9 l-1289 0 -214 -232 c-118 -127 -221 -239 -229 -247 -9 -9
-60 -64 -114 -123 -55 -60 -102 -108 -106 -108 -4 0 -76 75 -161 168 -84 92
-177 192 -205 222 -81 85 -112 119 -208 223 l-89 97 -1179 0 c-1147 0 -1179
-1 -1166 -19 13 -18 146 -163 313 -341 44 -47 121 -130 171 -185 51 -55 102
-111 115 -125 338 -363 1316 -1426 1322 -1435 4 -8 1 -20 -5 -27 -7 -8 -42
-45 -78 -84 -115 -124 -174 -187 -245 -264 -38 -41 -126 -136 -195 -210 -70
-74 -153 -164 -185 -200 -32 -36 -84 -91 -114 -124 -31 -32 -61 -64 -66 -70
-112 -122 -399 -433 -495 -536 -70 -74 -155 -166 -190 -205 -35 -38 -67 -72
-70 -75 -3 -3 -33 -34 -65 -70 -32 -36 -111 -121 -175 -190 -168 -180 -190
-206 -183 -214 3 -3 532 -6 1174 -6 l1167 0 68 72 c38 39 76 79 84 88 61 67
134 146 194 210 39 41 118 127 176 190 57 63 134 147 171 185 37 39 78 84 93
100 l26 30 57 -60 c32 -33 182 -193 333 -355 151 -162 310 -332 355 -378 l80
-82 3815 -8 c2098 -4 4255 -6 4793 -4 l977 2 0 788 c0 433 0 793 0 800 0 9 88
12 405 12 l404 0 36 38 c19 22 48 55 63 74 24 32 257 313 637 769 71 86 161
194 199 240 l69 84 -899 3 c-494 1 -902 6 -906 10 -7 7 -12 209 -9 300 1 9
217 12 1044 12 l1043 0 199 258 c109 141 222 287 249 324 28 37 54 67 59 67 4
1 7 -849 7 -1889 l0 -1890 688 0 687 0 70 73 c38 39 277 284 531 542 254 259
478 488 498 510 l36 40 -3 1615 -2 1615 -3735 0 -3735 0 -5 -1949 -5 -1950
-120 135 c-66 74 -183 206 -260 294 -77 88 -142 162 -145 165 -3 3 -38 42 -79
88 l-74 82 -976 0 c-537 0 -1000 3 -1028 6 l-53 7 0 163 0 164 983 2 982 3 0
600 0 600 -980 5 -980 5 -3 157 -3 158 998 2 998 3 0 630 0 630 -1646 3 -1647
2 -218 -237z"/>
</g>
</svg>
